HIERARCHY
ROOT Hips
{
	OFFSET 0.000000 0.000000 0.000000
	CHANNELS 6 Xposition Yposition Zposition Xrotation Yrotation Zrotation
	JOINT LeftUpLeg_virtual
	{
		OFFSET 0.000000 0.000000 0.000000
		CHANNELS 3 Xrotation Yrotation Zrotation
		JOINT LeftUpLeg
		{
			OFFSET 13.026900 -6.336304 -1.092800
			CHANNELS 3 Xrotation Yrotation Zrotation
			JOINT LeftLeg
			{
				OFFSET 0.524474 -46.096886 9.782700
				CHANNELS 3 Xrotation Yrotation Zrotation
				JOINT LeftFoot
				{
					OFFSET -0.524474 -53.427422 -12.948200
					CHANNELS 3 Xrotation Yrotation Zrotation
					JOINT LeftToeBase
					{
						OFFSET 0.192200 -14.009700 16.364100
						CHANNELS 3 Xrotation Yrotation Zrotation
						JOINT LeftToe_End
						{
							OFFSET -1.784700 -0.561700 9.474800
							CHANNELS 3 Xrotation Yrotation Zrotation
							End Site
							{
								OFFSET 0 0 0
							}
						}
					}
				}
			}
		}
	}
	JOINT RightUpLeg_virtual
	{
		OFFSET 0.000000 0.000000 0.000000
		CHANNELS 3 Xrotation Yrotation Zrotation
		JOINT RightUpLeg
		{
			OFFSET -12.883000 -6.336304 -1.092800
			CHANNELS 3 Xrotation Yrotation Zrotation
			JOINT RightLeg
			{
				OFFSET -0.524587 -46.096825 9.782800
				CHANNELS 3 Xrotation Yrotation Zrotation
				JOINT RightFoot
				{
					OFFSET 0.524587 -53.427383 -12.948300
					CHANNELS 3 Xrotation Yrotation Zrotation
					JOINT RightToeBase
					{
						OFFSET -0.192200 -14.009700 16.364100
						CHANNELS 3 Xrotation Yrotation Zrotation
						JOINT RightToe_End
						{
							OFFSET 1.784700 -0.561700 9.474800
							CHANNELS 3 Xrotation Yrotation Zrotation
							End Site
							{
								OFFSET 0 0 0
							}
						}
					}
				}
			}
		}
	}
	JOINT Spine_virtual
	{
		OFFSET 0.000000 0.000000 0.000000
		CHANNELS 3 Xrotation Yrotation Zrotation
		JOINT Spine
		{
			OFFSET 0.072000 7.257294 -0.789700
			CHANNELS 3 Xrotation Yrotation Zrotation
			JOINT Spine1
			{
				OFFSET 0.000000 12.508769 -0.658067
				CHANNELS 3 Xrotation Yrotation Zrotation
				JOINT Spine1_split
				{
					OFFSET 0.000000 12.508769 -0.658067
					CHANNELS 3 Xrotation Yrotation Zrotation
					JOINT Spine2
					{
						OFFSET 0.000000 12.508769 -0.658067
						CHANNELS 3 Xrotation Yrotation Zrotation
						JOINT Neck_virtual
						{
							OFFSET 0.000000 0.000000 0.000000
							CHANNELS 3 Xrotation Yrotation Zrotation
							JOINT Neck
							{
								OFFSET 0.000000 14.033295 7.520400
								CHANNELS 3 Xrotation Yrotation Zrotation
								JOINT Head
								{
									OFFSET 0.000000 8.198502 5.703100
									CHANNELS 3 Xrotation Yrotation Zrotation
									JOINT HeadTop_End
									{
										OFFSET 0.000000 17.760803 13.332701
										CHANNELS 3 Xrotation Yrotation Zrotation
										End Site
										{
											OFFSET 0 0 0
										}
									}
								}
							}
						}
						JOINT LeftShoulder_virtual
						{
							OFFSET 0.000000 0.000000 0.000000
							CHANNELS 3 Xrotation Yrotation Zrotation
							JOINT LeftShoulder
							{
								OFFSET 6.292450 5.785301 -0.669000
								CHANNELS 3 Xrotation Yrotation Zrotation
								JOINT LeftShoulder_split
								{
									OFFSET 6.292450 5.785301 -0.669000
									CHANNELS 3 Xrotation Yrotation Zrotation
									JOINT LeftArm
									{
										OFFSET 13.907140 -6.093903 1.965100
										CHANNELS 3 Xrotation Yrotation Zrotation
										JOINT LeftForeArm
										{
											OFFSET 34.140198 0.000000 0.000000
											CHANNELS 3 Xrotation Yrotation Zrotation
											JOINT LeftHand
											{
												OFFSET 40.960209 0.000000 0.000000
												CHANNELS 3 Xrotation Yrotation Zrotation
												End Site
												{
													OFFSET 0 0 0
												}
											}
										}
									}
								}
							}
						}
						JOINT RightShoulder_virtual
						{
							OFFSET 0.000000 0.000000 0.000000
							CHANNELS 3 Xrotation Yrotation Zrotation
							JOINT RightShoulder
							{
								OFFSET -6.292450 5.785301 -0.669000
								CHANNELS 3 Xrotation Yrotation Zrotation
								JOINT RightShoulder_split
								{
									OFFSET -6.292450 5.785301 -0.669000
									CHANNELS 3 Xrotation Yrotation Zrotation
									JOINT RightArm
									{
										OFFSET -13.907140 -6.093903 1.965100
										CHANNELS 3 Xrotation Yrotation Zrotation
										JOINT RightForeArm
										{
											OFFSET -34.140198 0.000000 0.000000
											CHANNELS 3 Xrotation Yrotation Zrotation
											JOINT RightHand
											{
												OFFSET -40.960209 0.000000 0.000000
												CHANNELS 3 Xrotation Yrotation Zrotation
												End Site
												{
													OFFSET 0 0 0
												}
											}
										}
									}
								}
							}
						}
					}
				}
			}
		}
	}
}
MOTION
Frames: 8
Frame Time: 0.03333333
1.647050 111.039215 2.126019 0.000000 0.000000 0.000000 39.188521 -13.763594 -0.130328 -81.596957 5.275659 32.130866 82.020347 -5.687425 -4.674370 11.958758 -16.232588 -2.331991 7.803466 -0.623906 1.841693 0.000000 0.000000 0.000000 35.301119 -18.684628 2.389572 -43.963694 1.976611 0.459732 29.827098 2.945814 -3.461638 -1.585307 -2.638772 -13.212101 -19.624860 3.088513 -1.077421 0.000000 0.000000 0.000000 39.992301 -8.437005 -0.008859 17.212302 4.318573 -7.521819 -6.390199 1.927019 1.207577 1.604105 0.192933 0.103120 0.000000 0.000000 0.000000 -8.826060 -0.988346 3.667680 -1.171235 6.525609 -2.053519 -21.501295 12.385551 -8.273352 0.000000 0.000000 0.000000 -9.054667 -0.520601 2.954491 1.681887 -4.500806 11.505899 -2.184180 -7.289403 -5.618205 -65.701092 -1.915293 -23.166070 173.885346 -78.109135 174.078286 0.000000 0.000000 0.000000 -8.825722 -1.072431 4.451367 5.355836 16.180076 0.809895 -5.364965 0.891337 2.956900 -14.838538 1.271594 47.112473 3.011883 69.277653 -6.459944 0.000000 0.000000 0.000000 
-0.021886 112.176910 16.263752 0.000000 0.000000 0.000000 35.449259 -14.847622 -0.663864 -84.245677 6.069326 32.527369 70.321189 -3.018803 -5.927493 11.612384 -15.663985 -2.706755 7.270606 -0.639200 2.188007 0.000000 0.000000 0.000000 33.627928 -23.217553 3.642697 -37.440700 2.737105 -1.925161 29.079134 2.809168 -3.317400 3.128681 -1.049197 -6.603802 -21.426151 3.045221 -1.207099 0.000000 0.000000 0.000000 39.594832 -8.745558 -0.305329 17.008715 5.738953 -7.626710 -6.604661 2.279844 1.310973 0.222932 0.876243 -0.612578 0.000000 0.000000 0.000000 -8.133581 -0.604502 3.838197 -1.412569 6.576597 -1.856820 -21.106925 11.723005 -7.785804 0.000000 0.000000 0.000000 -8.597018 -0.038420 3.355592 1.388207 -3.121666 10.303363 0.213705 -6.347463 -4.813153 -62.558830 0.567388 -23.034007 164.169238 -78.677892 164.174757 0.000000 0.000000 0.000000 -8.955846 -0.657398 4.270659 5.297600 17.759836 0.383880 -6.127401 0.740568 0.312603 -18.320350 7.874324 45.755072 9.377077 75.489231 -13.226726 0.000000 0.000000 0.000000 
-1.738332 113.800034 32.846344 0.000000 0.000000 0.000000 31.998750 -15.094916 -0.070298 -82.988718 6.244249 29.299316 57.183887 0.794602 -5.627940 11.730082 -13.589166 -2.964319 6.435642 -0.808553 2.355138 0.000000 0.000000 0.000000 32.069063 -23.588384 4.277485 -23.742649 4.927533 -4.112411 24.385884 1.486343 -3.764300 7.176762 0.199964 -0.094062 -19.235722 2.977254 -0.935592 0.000000 0.000000 0.000000 37.136896 -8.163940 -0.414158 18.168143 8.029933 -8.721291 -6.260703 2.911931 1.576860 -0.495855 0.348434 0.509749 0.000000 0.000000 0.000000 -6.883411 0.194235 4.155395 -2.884371 5.746358 -1.273342 -20.631855 9.619387 -7.715773 0.000000 0.000000 0.000000 -7.715185 0.861849 3.771066 1.044378 -1.279804 7.193352 1.963483 -4.886633 -2.622284 -57.037107 4.763263 -23.305490 143.823935 -76.286779 143.835642 0.000000 0.000000 0.000000 -8.343089 0.210321 4.012806 5.306757 20.024378 0.497875 -5.787314 -0.459883 -1.785514 -21.570484 14.257440 42.721696 24.175610 79.178182 -28.574189 0.000000 0.000000 0.000000 
-2.947864 114.301361 48.735680 0.000000 0.000000 0.000000 28.829289 -14.033973 1.494855 -78.556150 5.731819 23.193144 47.020446 4.190675 -3.567239 11.114036 -10.406019 -2.693352 6.519961 -1.062619 2.268128 0.000000 0.000000 0.000000 31.387103 -19.831931 4.548723 -7.913809 7.047192 -5.959057 19.015317 -1.071059 -4.856002 9.177087 -0.005913 4.109988 -15.521339 2.938493 -0.562865 0.000000 0.000000 0.000000 32.495482 -6.525885 -0.153219 20.962715 10.393443 -10.553048 -5.475054 3.500867 1.906887 0.926326 -1.656396 3.047295 0.000000 0.000000 0.000000 -5.494024 1.010426 4.529659 -5.525078 4.419031 -0.371532 -20.238639 6.850126 -7.993094 0.000000 0.000000 0.000000 -6.797319 1.685318 3.963928 0.893446 0.490480 2.677790 4.008127 -3.269732 -0.477263 -49.412010 9.810402 -25.369964 131.564169 -69.891939 131.600397 0.000000 0.000000 0.000000 -7.176350 1.043248 3.684067 5.070147 22.231895 1.986121 -5.183196 -1.891524 -3.341411 -22.681591 17.374678 38.605428 39.730456 79.627110 -44.784980 0.000000 0.000000 0.000000 
-3.756411 112.862579 63.369244 0.000000 0.000000 0.000000 25.257995 -11.426323 3.585992 -72.677092 4.614364 15.713081 41.460519 5.587629 -0.450847 9.025435 -7.637576 -2.807811 6.659361 -1.195653 1.991569 0.000000 0.000000 0.000000 30.435576 -13.198662 4.484765 2.020531 8.186119 -8.063313 21.564357 -3.053590 -5.426070 11.853884 -0.742396 6.740637 -9.189213 2.888036 0.232401 0.000000 0.000000 0.000000 26.506455 -3.352338 0.807978 25.171079 11.904121 -12.542669 -4.392332 3.707216 2.047310 2.322163 -2.843494 4.365955 0.000000 0.000000 0.000000 -4.330531 1.276446 4.768181 -8.987601 2.794151 0.707663 -19.869792 3.826930 -8.437623 0.000000 0.000000 0.000000 -6.058273 1.905128 3.743912 0.926579 1.238446 -2.582310 6.874916 -1.310026 1.277964 -39.753914 14.387162 -30.010280 128.834334 -61.810500 128.803079 0.000000 0.000000 0.000000 -5.827905 1.307782 3.257724 4.413645 23.326991 5.220850 -5.696703 -2.896964 -4.231585 -20.716022 15.695715 34.677325 48.159346 78.894135 -53.876471 0.000000 0.000000 0.000000 
-4.079633 109.358673 76.117447 0.000000 0.000000 0.000000 21.109830 -8.256381 5.802800 -65.717696 3.480022 8.336586 40.451840 4.856687 2.550199 4.843104 -5.980168 -2.726127 4.307060 -1.252511 1.681257 0.000000 0.000000 0.000000 27.782404 -4.767164 4.313556 1.422343 8.596352 -10.553189 36.266706 -3.765782 -4.778845 16.197717 -1.085025 8.448180 -0.601578 2.885246 1.508880 0.000000 0.000000 0.000000 19.940614 0.405014 3.149218 30.172214 12.018148 -14.070663 -3.216447 3.149919 1.852483 2.762840 -3.763214 3.626108 0.000000 0.000000 0.000000 -3.644434 0.674952 4.715599 -12.724390 1.078403 1.807307 -18.809434 1.616822 -8.444312 0.000000 0.000000 0.000000 -5.529994 1.226662 3.068066 0.913214 0.604539 -7.552520 9.970970 0.816755 2.165156 -30.157737 16.462282 -36.657557 131.218029 -54.285941 130.889442 0.000000 0.000000 0.000000 -4.753581 0.666130 2.767358 3.476905 22.304594 9.605283 -6.935517 -3.657128 -4.180485 -15.371913 9.499396 32.404204 51.357213 78.847048 -57.514182 0.000000 0.000000 0.000000 
-4.126968 104.470367 88.375511 0.000000 0.000000 0.000000 16.678110 -3.995913 7.636888 -58.390119 2.821636 2.152097 42.730473 3.147235 4.820074 -0.850594 -4.990638 -3.544209 0.140591 -1.129773 1.345942 0.000000 0.000000 0.000000 23.925818 4.193739 4.630903 -8.034162 8.671337 -12.625606 57.666474 -3.975223 -3.192926 18.506242 -0.892043 9.295478 4.528769 2.613690 2.450544 0.000000 0.000000 0.000000 13.647287 3.546579 5.775095 34.960112 10.791253 -14.293276 -2.334573 1.665509 1.474137 2.771101 -3.945256 1.571752 0.000000 0.000000 0.000000 -3.327372 -0.828116 4.285501 -16.529416 -0.611239 2.732808 -16.595591 0.132564 -7.665771 0.000000 0.000000 0.000000 -5.049053 -0.308875 2.214646 0.722431 -1.179141 -11.308748 11.433083 2.917184 1.175083 -22.403895 15.659641 -43.187617 136.230117 -48.547154 135.393911 0.000000 0.000000 0.000000 -4.025839 -0.962005 2.202946 2.360001 18.937227 14.160593 -8.274996 -3.660081 -3.901877 -7.359785 0.864430 33.063163 51.942130 80.014177 -58.399763 0.000000 0.000000 0.000000 
-4.108744 99.955750 101.598846 0.000000 0.000000 0.000000 12.631726 0.312542 8.768303 -48.901969 3.400187 -1.996359 44.963210 2.615660 5.832448 -7.713324 -3.757489 -4.001961 -3.345120 -0.902750 0.581853 0.000000 0.000000 0.000000 19.242533 11.503892 5.449813 -22.701761 8.433461 -13.144279 77.137172 -4.408284 -1.409310 16.617345 -0.472128 8.398753 2.897284 1.816652 2.506071 0.000000 0.000000 0.000000 9.301586 5.283609 7.825507 38.300989 8.584942 -12.663730 -2.011225 -0.625677 0.959235 1.707835 -3.361127 0.001179 0.000000 0.000000 0.000000 -3.272777 -3.053279 3.489540 -19.668045 -2.154825 3.300546 -13.052128 -1.180003 -5.981971 0.000000 0.000000 0.000000 -4.540283 -2.459250 1.443534 0.305508 -3.420742 -13.361238 11.620290 4.599970 -0.432310 -18.105838 12.884188 -47.424551 142.649088 -45.193490 141.147676 0.000000 0.000000 0.000000 -3.415606 -3.228711 1.639023 1.484655 13.389449 17.417691 -9.111253 -2.075332 -3.566222 3.086327 -6.869924 36.028251 47.885466 82.277012 -54.501911 0.000000 0.000000 0.000000 
